<svg width="12" height="12" viewBox="0 0 12 12" fill="none" xmlns="http://www.w3.org/2000/svg">
<path fill-rule="evenodd" clip-rule="evenodd" d="M0.666992 6.0013C0.666992 5.63311 0.965469 5.33464 1.33366 5.33464H10.667C11.0352 5.33464 11.3337 5.63311 11.3337 6.0013C11.3337 6.36949 11.0352 6.66797 10.667 6.66797H1.33366C0.965469 6.66797 0.666992 6.36949 0.666992 6.0013Z" fill="#A7A7A7"/>
<path fill-rule="evenodd" clip-rule="evenodd" d="M5.52892 0.863231C5.78927 0.602881 6.21138 0.602881 6.47173 0.863231L11.1384 5.5299C11.3987 5.79025 11.3987 6.21236 11.1384 6.47271L6.47173 11.1394C6.21138 11.3997 5.78927 11.3997 5.52892 11.1394C5.26857 10.879 5.26857 10.4569 5.52892 10.1966L9.72418 6.0013L5.52892 1.80604C5.26857 1.54569 5.26857 1.12358 5.52892 0.863231Z" fill="#A7A7A7"/>
</svg>
