<svg width="14" height="16" viewBox="0 0 14 16" fill="none" xmlns="http://www.w3.org/2000/svg">
<path fill-rule="evenodd" clip-rule="evenodd" d="M0.333252 3.99935C0.333252 3.63116 0.631729 3.33268 0.999919 3.33268H12.9999C13.3681 3.33268 13.6666 3.63116 13.6666 3.99935C13.6666 4.36754 13.3681 4.66602 12.9999 4.66602H0.999919C0.631729 4.66602 0.333252 4.36754 0.333252 3.99935Z" fill="black"/>
<path fill-rule="evenodd" clip-rule="evenodd" d="M5.66658 1.99935C5.48977 1.99935 5.32021 2.06959 5.19518 2.19461C5.07016 2.31964 4.99992 2.4892 4.99992 2.66602V3.99935C4.99992 4.36754 4.70144 4.66602 4.33325 4.66602C3.96506 4.66602 3.66658 4.36754 3.66658 3.99935V2.66602C3.66658 2.13558 3.8773 1.62687 4.25237 1.2518C4.62744 0.876729 5.13615 0.666016 5.66658 0.666016H8.33325C8.86368 0.666016 9.37239 0.876729 9.74746 1.2518C10.1225 1.62687 10.3333 2.13558 10.3333 2.66602V3.99935C10.3333 4.36754 10.0348 4.66602 9.66658 4.66602C9.29839 4.66602 8.99992 4.36754 8.99992 3.99935V2.66602C8.99992 2.4892 8.92968 2.31964 8.80466 2.19461C8.67963 2.06959 8.51006 1.99935 8.33325 1.99935H5.66658ZM2.33325 3.33268C2.70144 3.33268 2.99992 3.63116 2.99992 3.99935V13.3327C2.99992 13.5095 3.07016 13.6791 3.19518 13.8041C3.32021 13.9291 3.48977 13.9993 3.66658 13.9993H10.3333C10.5101 13.9993 10.6796 13.9291 10.8047 13.8041C10.9297 13.6791 10.9999 13.5095 10.9999 13.3327V3.99935C10.9999 3.63116 11.2984 3.33268 11.6666 3.33268C12.0348 3.33268 12.3333 3.63116 12.3333 3.99935V13.3327C12.3333 13.8631 12.1225 14.3718 11.7475 14.7469C11.3724 15.122 10.8637 15.3327 10.3333 15.3327H3.66658C3.13615 15.3327 2.62744 15.122 2.25237 14.7469C1.8773 14.3718 1.66659 13.8631 1.66659 13.3327V3.99935C1.66659 3.63116 1.96506 3.33268 2.33325 3.33268Z" fill="black"/>
<path fill-rule="evenodd" clip-rule="evenodd" d="M5.66658 6.66602C6.03477 6.66602 6.33325 6.96449 6.33325 7.33268V11.3327C6.33325 11.7009 6.03477 11.9993 5.66658 11.9993C5.2984 11.9993 4.99992 11.7009 4.99992 11.3327V7.33268C4.99992 6.96449 5.2984 6.66602 5.66658 6.66602Z" fill="black"/>
<path fill-rule="evenodd" clip-rule="evenodd" d="M8.33325 6.66602C8.70144 6.66602 8.99992 6.96449 8.99992 7.33268V11.3327C8.99992 11.7009 8.70144 11.9993 8.33325 11.9993C7.96506 11.9993 7.66658 11.7009 7.66658 11.3327V7.33268C7.66658 6.96449 7.96506 6.66602 8.33325 6.66602Z" fill="black"/>
</svg>
