<svg width="20" height="20" viewBox="0 0 20 20" fill="none" xmlns="http://www.w3.org/2000/svg">
<path fill-rule="evenodd" clip-rule="evenodd" d="M3.23223 1.56426C3.70107 1.09542 4.33696 0.832031 5 0.832031H11.6667C11.8877 0.832031 12.0996 0.919829 12.2559 1.07611L17.2559 6.07611C17.4122 6.23239 17.5 6.44435 17.5 6.66536V16.6654C17.5 17.3284 17.2366 17.9643 16.7678 18.4331C16.2989 18.902 15.663 19.1654 15 19.1654H5C4.33696 19.1654 3.70107 18.902 3.23223 18.4331C2.76339 17.9643 2.5 17.3284 2.5 16.6654V3.33203C2.5 2.66899 2.76339 2.03311 3.23223 1.56426ZM5 2.4987C4.77899 2.4987 4.56702 2.5865 4.41074 2.74278C4.25446 2.89906 4.16667 3.11102 4.16667 3.33203V16.6654C4.16667 16.8864 4.25446 17.0983 4.41074 17.2546C4.56702 17.4109 4.77899 17.4987 5 17.4987H15C15.221 17.4987 15.433 17.4109 15.5893 17.2546C15.7455 17.0983 15.8333 16.8864 15.8333 16.6654V7.01054L11.3215 2.4987H5Z" fill="#A7A7A7"/>
<path fill-rule="evenodd" clip-rule="evenodd" d="M11.6667 0.832031C12.1269 0.832031 12.5 1.20513 12.5 1.66536V5.83203H16.6667C17.1269 5.83203 17.5 6.20513 17.5 6.66536C17.5 7.1256 17.1269 7.4987 16.6667 7.4987H11.6667C11.2064 7.4987 10.8333 7.1256 10.8333 6.66536V1.66536C10.8333 1.20513 11.2064 0.832031 11.6667 0.832031Z" fill="#A7A7A7"/>
<path fill-rule="evenodd" clip-rule="evenodd" d="M5.83333 10.832C5.83333 10.3718 6.20643 9.9987 6.66667 9.9987H13.3333C13.7936 9.9987 14.1667 10.3718 14.1667 10.832C14.1667 11.2923 13.7936 11.6654 13.3333 11.6654H6.66667C6.20643 11.6654 5.83333 11.2923 5.83333 10.832Z" fill="#A7A7A7"/>
<path fill-rule="evenodd" clip-rule="evenodd" d="M5.83333 14.1654C5.83333 13.7051 6.20643 13.332 6.66667 13.332H13.3333C13.7936 13.332 14.1667 13.7051 14.1667 14.1654C14.1667 14.6256 13.7936 14.9987 13.3333 14.9987H6.66667C6.20643 14.9987 5.83333 14.6256 5.83333 14.1654Z" fill="#A7A7A7"/>
<path fill-rule="evenodd" clip-rule="evenodd" d="M5.83333 7.4987C5.83333 7.03846 6.20643 6.66536 6.66667 6.66536H8.33333C8.79357 6.66536 9.16667 7.03846 9.16667 7.4987C9.16667 7.95894 8.79357 8.33203 8.33333 8.33203H6.66667C6.20643 8.33203 5.83333 7.95894 5.83333 7.4987Z" fill="#A7A7A7"/>
</svg>
