<svg width="18" height="21" viewBox="0 0 18 21" fill="none" xmlns="http://www.w3.org/2000/svg">
<path fill-rule="evenodd" clip-rule="evenodd" d="M7.11043 0.339212C7.65934 0.400202 8.05487 0.894621 7.99388 1.44353L7.4506 6.3331H11.4383L12.0061 1.22266C12.0671 0.673758 12.5615 0.278223 13.1104 0.339212C13.6593 0.400202 14.0549 0.894621 13.9939 1.44353L13.4506 6.3331H17C17.5523 6.3331 18 6.78081 18 7.3331C18 7.88538 17.5523 8.3331 17 8.3331H13.2284L12.7839 12.3331H17C17.5523 12.3331 18 12.7808 18 13.3331C18 13.8854 17.5523 14.3331 17 14.3331H12.5617L11.9939 19.4435C11.9329 19.9924 11.4385 20.388 10.8896 20.327C10.3407 20.266 9.94513 19.7716 10.0061 19.2227L10.5494 14.3331H6.56171L5.99388 19.4435C5.93289 19.9924 5.43847 20.388 4.88957 20.327C4.34066 20.266 3.94513 19.7716 4.00612 19.2227L4.5494 14.3331H1C0.447715 14.3331 0 13.8854 0 13.3331C0 12.7808 0.447715 12.3331 1 12.3331H4.77162L5.21607 8.3331H1C0.447715 8.3331 0 7.88538 0 7.3331C0 6.78081 0.447715 6.3331 1 6.3331H5.43829L6.00612 1.22266C6.06711 0.673758 6.56152 0.278223 7.11043 0.339212ZM7.22838 8.3331L6.78393 12.3331H10.7716L11.2161 8.3331H7.22838Z" fill="#004B50"/>
</svg>
