<svg width="18" height="18" viewBox="0 0 18 18" fill="none" xmlns="http://www.w3.org/2000/svg">
<g clip-path="url(#clip0_591_1782)">
<path fill-rule="evenodd" clip-rule="evenodd" d="M14.8947 2.33854C14.7148 2.2685 14.522 2.23638 14.3287 2.24436C14.1353 2.25233 13.946 2.30022 13.7727 2.38478C13.5994 2.46933 13.4462 2.5886 13.3225 2.73471C13.3091 2.75057 13.295 2.76587 13.2803 2.78056L3.29618 12.7647L2.56893 15.4313L5.23552 14.7041L15.2197 4.7199C15.2369 4.70274 15.2548 4.68642 15.2736 4.671C15.4219 4.54901 15.5426 4.39799 15.6284 4.22775C15.7141 4.05754 15.7631 3.8717 15.7724 3.68205C15.7817 3.4924 15.7511 3.3028 15.6824 3.12529C15.6138 2.94776 15.5085 2.78599 15.3729 2.65045C15.2374 2.51491 15.0745 2.40857 14.8947 2.33854ZM14.2668 0.745632C14.6668 0.729128 15.066 0.795538 15.4389 0.940758C15.8119 1.08598 16.1507 1.30692 16.4336 1.58979C16.7165 1.87268 16.9372 2.2113 17.0814 2.58424C17.2257 2.95719 17.2901 3.35607 17.2706 3.75539C17.251 4.15471 17.1479 4.54541 16.968 4.90256C16.794 5.24804 16.5519 5.55465 16.2565 5.80438L6.15535 15.9056C6.06306 15.9979 5.94828 16.0645 5.82236 16.0988L1.69736 17.2238C1.4377 17.2946 1.16 17.2209 0.969687 17.0306C0.779375 16.8403 0.705628 16.5626 0.776444 16.3029L1.90144 12.1779C1.93579 12.052 2.0024 11.9372 2.09469 11.8449L12.1993 1.74029C12.4538 1.4466 12.7652 1.20732 13.1149 1.03671C13.4745 0.861204 13.8669 0.762136 14.2668 0.745632Z" fill="#637381"/>
</g>
<defs>
<clipPath id="clip0_591_1782">
<rect width="18" height="18" fill="white"/>
</clipPath>
</defs>
</svg>
