<svg width="14" height="14" viewBox="0 0 14 14" fill="none" xmlns="http://www.w3.org/2000/svg">
<path fill-rule="evenodd" clip-rule="evenodd" d="M7.00004 0.333496C7.46028 0.333496 7.83337 0.706592 7.83337 1.16683V6.16683H12.8334C13.2936 6.16683 13.6667 6.53993 13.6667 7.00016C13.6667 7.4604 13.2936 7.8335 12.8334 7.8335H7.83337V12.8335C7.83337 13.2937 7.46028 13.6668 7.00004 13.6668C6.5398 13.6668 6.16671 13.2937 6.16671 12.8335V7.8335H1.16671C0.70647 7.8335 0.333374 7.4604 0.333374 7.00016C0.333374 6.53993 0.70647 6.16683 1.16671 6.16683H6.16671V1.16683C6.16671 0.706592 6.5398 0.333496 7.00004 0.333496Z" fill="white"/>
</svg>
