<svg width="18" height="18" viewBox="0 0 18 18" fill="none" xmlns="http://www.w3.org/2000/svg">
<path fill-rule="evenodd" clip-rule="evenodd" d="M8.10002 1.8C4.62062 1.8 1.8 4.62062 1.8 8.10002C1.8 11.5794 4.62062 14.4 8.10002 14.4C11.5794 14.4 14.4 11.5794 14.4 8.10002C14.4 4.62062 11.5794 1.8 8.10002 1.8ZM0 8.10002C0 3.6265 3.6265 0 8.10002 0C12.5735 0 16.2 3.6265 16.2 8.10002C16.2 10.0125 15.5372 11.7702 14.4287 13.156L17.7364 16.4636C18.0879 16.8151 18.0879 17.3849 17.7364 17.7364C17.3849 18.0879 16.8151 18.0879 16.4636 17.7364L13.156 14.4287C11.7702 15.5372 10.0125 16.2 8.10002 16.2C3.6265 16.2 0 12.5735 0 8.10002Z" fill="#637381"/>
</svg>
