<svg width="16" height="17" viewBox="0 0 16 17" fill="none" xmlns="http://www.w3.org/2000/svg">
<path d="M5.90622 1.53333C5.98122 1.08167 6.37289 0.75 6.83122 0.75H8.99206C9.45039 0.75 9.84206 1.08167 9.91706 1.53333L10.0946 2.60083C10.1471 2.9125 10.3554 3.1725 10.6321 3.32583C10.6937 3.35917 10.7546 3.395 10.8154 3.43167C11.0862 3.595 11.4154 3.64583 11.7112 3.535L12.7254 3.155C12.9332 3.07684 13.162 3.07498 13.3711 3.14976C13.5802 3.22454 13.7559 3.3711 13.8671 3.56333L14.9471 5.43583C15.0579 5.62809 15.097 5.85344 15.0573 6.0718C15.0177 6.29017 14.9018 6.48737 14.7304 6.62833L13.8946 7.3175C13.6504 7.51833 13.5296 7.82833 13.5362 8.14417C13.5374 8.215 13.5374 8.28584 13.5362 8.35667C13.5296 8.67167 13.6504 8.98167 13.8946 9.1825L14.7312 9.87167C15.0846 10.1633 15.1762 10.6675 14.9479 11.0633L13.8662 12.9358C13.7553 13.128 13.5797 13.2746 13.3708 13.3496C13.1619 13.4245 12.9332 13.4229 12.7254 13.345L11.7112 12.965C11.4154 12.8542 11.0862 12.905 10.8146 13.0683C10.7542 13.1051 10.693 13.1406 10.6312 13.175C10.3554 13.3275 10.1471 13.5875 10.0946 13.8992L9.91706 14.9667C9.84206 15.4192 9.45039 15.75 8.99206 15.75H6.83039C6.37206 15.75 5.98122 15.4183 5.90539 14.9667L5.72789 13.8992C5.67622 13.5875 5.46789 13.3275 5.19122 13.1742C5.12943 13.1401 5.06831 13.1048 5.00789 13.0683C4.73706 12.905 4.40789 12.8542 4.11122 12.965L3.09706 13.345C2.88933 13.4229 2.66069 13.4247 2.45181 13.3499C2.24292 13.2751 2.06731 13.1287 1.95622 12.9367L0.875389 11.0642C0.764509 10.8719 0.725429 10.6466 0.765103 10.4282C0.804778 10.2098 0.920633 10.0126 1.09206 9.87167L1.92872 9.1825C2.17206 8.9825 2.29289 8.67167 2.28706 8.35667C2.28575 8.28584 2.28575 8.21499 2.28706 8.14417C2.29289 7.8275 2.17206 7.51833 1.92872 7.3175L1.09206 6.62833C0.920839 6.48741 0.805118 6.29036 0.76545 6.07219C0.725782 5.85401 0.764735 5.62884 0.875389 5.43667L1.95622 3.56417C2.06721 3.37178 2.2429 3.22505 2.45198 3.15011C2.66107 3.07518 2.88996 3.07691 3.09789 3.155L4.11122 3.535C4.40789 3.64583 4.73706 3.595 5.00789 3.43167C5.06789 3.395 5.12956 3.36 5.19122 3.325C5.46789 3.1725 5.67622 2.9125 5.72789 2.60083L5.90622 1.53333Z" stroke="black" stroke-width="1.5" stroke-linecap="round" stroke-linejoin="round"/>
<path d="M10.4111 8.25C10.4111 8.91304 10.1477 9.54893 9.6789 10.0178C9.21006 10.4866 8.57417 10.75 7.91113 10.75C7.24809 10.75 6.61221 10.4866 6.14337 10.0178C5.67452 9.54893 5.41113 8.91304 5.41113 8.25C5.41113 7.58696 5.67452 6.95107 6.14337 6.48223C6.61221 6.01339 7.24809 5.75 7.91113 5.75C8.57417 5.75 9.21006 6.01339 9.6789 6.48223C10.1477 6.95107 10.4111 7.58696 10.4111 8.25Z" stroke="black" stroke-width="1.5" stroke-linecap="round" stroke-linejoin="round"/>
</svg>
