<svg width="20" height="18" viewBox="0 0 20 18" fill="none" xmlns="http://www.w3.org/2000/svg">
<path fill-rule="evenodd" clip-rule="evenodd" d="M1.22039 11.8864C2.00179 11.105 3.0616 10.666 4.16667 10.666H10.8333C11.9384 10.666 12.9982 11.105 13.7796 11.8864C14.561 12.6678 15 13.7276 15 14.8327V16.4993C15 16.9596 14.6269 17.3327 14.1667 17.3327C13.7064 17.3327 13.3333 16.9596 13.3333 16.4993V14.8327C13.3333 14.1696 13.0699 13.5338 12.6011 13.0649C12.1323 12.5961 11.4964 12.3327 10.8333 12.3327H4.16667C3.50363 12.3327 2.86774 12.5961 2.3989 13.0649C1.93006 13.5338 1.66667 14.1696 1.66667 14.8327V16.4993C1.66667 16.9596 1.29357 17.3327 0.833333 17.3327C0.373096 17.3327 0 16.9596 0 16.4993V14.8327C0 13.7276 0.438987 12.6678 1.22039 11.8864Z" fill="#717680"/>
<path fill-rule="evenodd" clip-rule="evenodd" d="M7.5 2.33268C6.11929 2.33268 5 3.45197 5 4.83268C5 6.21339 6.11929 7.33268 7.5 7.33268C8.88071 7.33268 10 6.21339 10 4.83268C10 3.45197 8.88071 2.33268 7.5 2.33268ZM3.33333 4.83268C3.33333 2.5315 5.19881 0.666016 7.5 0.666016C9.80119 0.666016 11.6667 2.5315 11.6667 4.83268C11.6667 7.13387 9.80119 8.99935 7.5 8.99935C5.19881 8.99935 3.33333 7.13387 3.33333 4.83268Z" fill="#717680"/>
<path fill-rule="evenodd" clip-rule="evenodd" d="M15.8598 11.3993C15.9749 10.9537 16.4294 10.6858 16.875 10.8008C17.7689 11.0316 18.5608 11.5527 19.1264 12.2824C19.692 13.012 19.9993 13.9089 20 14.8321V16.4993C20 16.9596 19.6269 17.3327 19.1667 17.3327C18.7064 17.3327 18.3333 16.9596 18.3333 16.4993V14.8333C18.3329 14.2795 18.1485 13.7412 17.8092 13.3035C17.4698 12.8657 16.9947 12.553 16.4583 12.4146C16.0127 12.2995 15.7447 11.845 15.8598 11.3993Z" fill="#717680"/>
<path fill-rule="evenodd" clip-rule="evenodd" d="M12.526 1.40098C12.6402 0.955128 13.0942 0.686234 13.54 0.800391C14.4363 1.02987 15.2307 1.55112 15.798 2.28196C16.3653 3.01281 16.6732 3.91167 16.6732 4.83685C16.6732 5.76203 16.3653 6.66089 15.798 7.39173C15.2307 8.12258 14.4363 8.64383 13.54 8.87331C13.0942 8.98746 12.6402 8.71857 12.526 8.27271C12.4119 7.82686 12.6808 7.37288 13.1266 7.25872C13.6644 7.12104 14.141 6.80829 14.4814 6.36978C14.8218 5.93127 15.0065 5.39195 15.0065 4.83685C15.0065 4.28174 14.8218 3.74242 14.4814 3.30392C14.141 2.86541 13.6644 2.55266 13.1266 2.41497C12.6808 2.30082 12.4119 1.84684 12.526 1.40098Z" fill="#717680"/>
</svg>
