<svg width="19" height="19" viewBox="0 0 19 19" fill="none" xmlns="http://www.w3.org/2000/svg">
<path fill-rule="evenodd" clip-rule="evenodd" d="M6.59745 1.1917C6.78152 1.61352 6.58879 2.1047 6.16697 2.28878C5.04413 2.77877 4.05842 3.53635 3.296 4.4953C2.53359 5.45425 2.01769 6.58536 1.79342 7.78975C1.56914 8.99414 1.64331 10.2351 2.00945 11.4042C2.37558 12.5733 3.02253 13.635 3.89373 14.4963C4.76494 15.3576 5.83387 15.9924 7.00708 16.3451C8.18029 16.6979 9.42205 16.7579 10.6238 16.5199C11.8255 16.2818 12.9507 15.7531 13.9009 14.9798C14.8511 14.2064 15.5973 13.2121 16.0745 12.0838C16.2537 11.6599 16.7427 11.4616 17.1666 11.6408C17.5905 11.82 17.7888 12.309 17.6095 12.7329C17.0264 14.112 16.1143 15.3273 14.9529 16.2724C13.7916 17.2176 12.4164 17.8639 10.9476 18.1548C9.4788 18.4457 7.96109 18.3724 6.52717 17.9412C5.09325 17.5101 3.78678 16.7342 2.72197 15.6815C1.65717 14.6288 0.866449 13.3312 0.418952 11.9023C-0.0285458 10.4734 -0.119199 8.95667 0.154917 7.48464C0.429034 6.0126 1.05957 4.63013 1.99141 3.45808C2.92325 2.28603 4.12801 1.3601 5.50037 0.761223C5.92219 0.577146 6.41337 0.769878 6.59745 1.1917Z" fill="black"/>
<path fill-rule="evenodd" clip-rule="evenodd" d="M8.57775 0.244078C8.73403 0.0877973 8.94599 0 9.167 0C10.3708 0 11.5628 0.237103 12.6749 0.697771C13.7871 1.15844 14.7976 1.83365 15.6488 2.68485C16.5 3.53606 17.1752 4.54658 17.6359 5.65874C18.0966 6.77089 18.3337 7.96288 18.3337 9.16667C18.3337 9.6269 17.9606 10 17.5003 10H9.167C8.70677 10 8.33367 9.6269 8.33367 9.16667V0.833333C8.33367 0.61232 8.42147 0.400358 8.57775 0.244078ZM10.0003 1.71311V8.33333H16.6206C16.5424 7.63451 16.3663 6.94874 16.0961 6.29654C15.7192 5.3866 15.1667 4.55981 14.4703 3.86337C13.7739 3.16693 12.9471 2.61448 12.0371 2.23757C11.3849 1.96742 10.6992 1.79124 10.0003 1.71311Z" fill="black"/>
</svg>
