<svg width="20" height="20" viewBox="0 0 20 20" fill="none" xmlns="http://www.w3.org/2000/svg">
<path fill-rule="evenodd" clip-rule="evenodd" d="M7.43045 2.02568C7.61453 2.44751 7.4218 2.93869 6.99998 3.12276C5.87714 3.61275 4.89142 4.37034 4.12901 5.32928C3.3666 6.28823 2.8507 7.41935 2.62643 8.62374C2.40215 9.82813 2.47632 11.0691 2.84245 12.2382C3.20859 13.4073 3.85554 14.4689 4.72674 15.3303C5.59795 16.1916 6.66688 16.8264 7.84009 17.1791C9.01329 17.5319 10.2551 17.5919 11.4568 17.3538C12.6586 17.1158 13.7837 16.5871 14.7339 15.8137C15.6841 15.0404 16.4303 14.0461 16.9075 12.9178C17.0867 12.4939 17.5757 12.2955 17.9996 12.4748C18.4235 12.654 18.6218 13.143 18.4425 13.5669C17.8594 14.946 16.9473 16.1612 15.7859 17.1064C14.6246 18.0516 13.2494 18.6978 11.7806 18.9888C10.3118 19.2797 8.7941 19.2063 7.36018 18.7752C5.92626 18.344 4.61978 17.5682 3.55498 16.5155C2.49017 15.4628 1.69946 14.1652 1.25196 12.7363C0.804462 11.3074 0.713809 9.79065 0.987925 8.31862C1.26204 6.84659 1.89258 5.46412 2.82442 4.29207C3.75626 3.12002 4.96102 2.19408 6.33338 1.59521C6.7552 1.41113 7.24638 1.60386 7.43045 2.02568Z" fill="#717680"/>
<path fill-rule="evenodd" clip-rule="evenodd" d="M9.41076 1.07806C9.56704 0.921782 9.779 0.833984 10 0.833984C11.2038 0.833984 12.3958 1.07109 13.5079 1.53176C14.6201 1.99242 15.6306 2.66764 16.4818 3.51884C17.333 4.37004 18.0082 5.38057 18.4689 6.49272C18.9296 7.60487 19.1667 8.79687 19.1667 10.0007C19.1667 10.4609 18.7936 10.834 18.3333 10.834H10C9.53977 10.834 9.16668 10.4609 9.16668 10.0007V1.66732C9.16668 1.4463 9.25447 1.23434 9.41076 1.07806ZM10.8333 2.54709V9.16732H17.4536C17.3754 8.46849 17.1993 7.78273 16.9291 7.13053C16.5522 6.22058 15.9998 5.39379 15.3033 4.69735C14.6069 4.00091 13.7801 3.44847 12.8701 3.07155C12.2179 2.8014 11.5322 2.62522 10.8333 2.54709Z" fill="#717680"/>
</svg>
