<svg width="18" height="18" viewBox="0 0 18 18" fill="none" xmlns="http://www.w3.org/2000/svg">
<path d="M9.86669 6.11502C10.4082 6.37357 10.8798 6.7583 11.2418 7.23689C11.6038 7.71548 11.8456 8.27395 11.947 8.8654C12.0485 9.45685 12.0064 10.064 11.8245 10.6358C11.6426 11.2077 11.3262 11.7275 10.9017 12.1517L7.15169 15.9017C6.44842 16.605 5.49459 17 4.50002 17C3.50546 17 2.55162 16.605 1.84836 15.9017C1.14509 15.1984 0.75 14.2446 0.75 13.25C0.75 12.2555 1.14509 11.3016 1.84836 10.5984L3.31252 9.13419M14.4375 8.61586L15.9017 7.15169C16.605 6.44842 17 5.49459 17 4.50002C17 3.50546 16.605 2.55162 15.9017 1.84836C15.1984 1.14509 14.2446 0.75 13.25 0.75C12.2555 0.75 11.3016 1.14509 10.5984 1.84836L6.84836 5.59836C6.42389 6.02252 6.10741 6.54236 5.92551 7.11421C5.74361 7.68605 5.70159 8.2932 5.803 8.88464C5.9044 9.47609 6.14626 10.0346 6.50827 10.5132C6.87027 10.9917 7.34183 11.3765 7.88336 11.635" stroke="#717680" stroke-width="1.5" stroke-linecap="round" stroke-linejoin="round"/>
</svg>
