<svg width="24" height="35" viewBox="0 0 24 35" fill="none" xmlns="http://www.w3.org/2000/svg">
<path d="M14.1561 2.64124C16.0111 0.786253 19.0186 0.786252 20.8736 2.64124C22.7286 4.49623 22.7286 7.50377 20.8736 9.35876L9.55993 20.6725C7.70494 22.5275 4.6974 22.5275 2.84241 20.6725C0.987424 18.8175 0.987424 15.8099 2.84241 13.955L14.1561 2.64124Z" stroke="black" stroke-width="2.5"/>
<path d="M2.64124 20.8734C0.786253 19.0184 0.786252 16.0109 2.64124 14.1559C4.49623 12.3009 7.50377 12.3009 9.35876 14.1559L20.6725 25.4696C22.5275 27.3246 22.5275 30.3321 20.6725 32.1871C18.8175 34.0421 15.8099 34.0421 13.955 32.1871L2.64124 20.8734Z" stroke="black" stroke-width="2.5"/>
</svg>
