<svg width="16" height="16" viewBox="0 0 16 16" fill="none" xmlns="http://www.w3.org/2000/svg">
<path fill-rule="evenodd" clip-rule="evenodd" d="M6.11471 0.781049C6.6148 0.280951 7.29308 0 8.00033 0C8.70757 0 9.38585 0.280951 9.88594 0.781049C10.386 1.28115 10.667 1.95942 10.667 2.66667V8C10.667 8.70724 10.386 9.38552 9.88594 9.88562C9.38585 10.3857 8.70757 10.6667 8.00033 10.6667C7.29308 10.6667 6.6148 10.3857 6.11471 9.88562C5.61461 9.38552 5.33366 8.70724 5.33366 8V2.66667C5.33366 1.95942 5.61461 1.28115 6.11471 0.781049ZM8.00033 1.33333C7.6467 1.33333 7.30756 1.47381 7.05752 1.72386C6.80747 1.97391 6.66699 2.31304 6.66699 2.66667V8C6.66699 8.35362 6.80747 8.69276 7.05752 8.94281C7.30756 9.19286 7.6467 9.33333 8.00033 9.33333C8.35395 9.33333 8.69309 9.19286 8.94314 8.94281C9.19318 8.69276 9.33366 8.35362 9.33366 8V2.66667C9.33366 2.31304 9.19318 1.97391 8.94314 1.72386C8.69309 1.47381 8.35395 1.33333 8.00033 1.33333Z" fill="#8E8E93"/>
<path fill-rule="evenodd" clip-rule="evenodd" d="M3.33366 6C3.70185 6 4.00033 6.29848 4.00033 6.66667V8C4.00033 9.06087 4.42175 10.0783 5.1719 10.8284C5.92204 11.5786 6.93946 12 8.00033 12C9.06119 12 10.0786 11.5786 10.8288 10.8284C11.5789 10.0783 12.0003 9.06087 12.0003 8V6.66667C12.0003 6.29848 12.2988 6 12.667 6C13.0352 6 13.3337 6.29848 13.3337 6.66667V8C13.3337 9.41449 12.7718 10.771 11.7716 11.7712C10.7714 12.7714 9.41481 13.3333 8.00033 13.3333C6.58584 13.3333 5.22928 12.7714 4.22909 11.7712C3.2289 10.771 2.66699 9.41449 2.66699 8V6.66667C2.66699 6.29848 2.96547 6 3.33366 6Z" fill="#8E8E93"/>
<path fill-rule="evenodd" clip-rule="evenodd" d="M8.00033 12C8.36852 12 8.66699 12.2985 8.66699 12.6667V15.3333C8.66699 15.7015 8.36852 16 8.00033 16C7.63214 16 7.33366 15.7015 7.33366 15.3333V12.6667C7.33366 12.2985 7.63214 12 8.00033 12Z" fill="#8E8E93"/>
<path fill-rule="evenodd" clip-rule="evenodd" d="M4.66699 15.3333C4.66699 14.9651 4.96547 14.6667 5.33366 14.6667H10.667C11.0352 14.6667 11.3337 14.9651 11.3337 15.3333C11.3337 15.7015 11.0352 16 10.667 16H5.33366C4.96547 16 4.66699 15.7015 4.66699 15.3333Z" fill="#8E8E93"/>
</svg>
