<svg width="20" height="20" viewBox="0 0 20 20" fill="none" xmlns="http://www.w3.org/2000/svg">
<path d="M13.125 13.125V15M6.875 9.375H6.88167V9.38167H6.875V9.375ZM6.875 11.25H6.88167V11.2567H6.875V11.25ZM6.875 13.125H6.88167V13.1317H6.875V13.125ZM6.875 15H6.88167V15.0067H6.875V15ZM8.95667 9.375H8.9625V9.38167H8.95667V9.375ZM8.95667 11.25H8.9625V11.2567H8.95667V11.25ZM8.95667 13.125H8.9625V13.1317H8.95667V13.125ZM8.95667 15H8.9625V15.0067H8.95667V15ZM11.0433 9.375H11.05V9.38167H11.0433V9.375ZM11.0433 11.25H11.05V11.2567H11.0433V11.25ZM11.0433 13.125H11.05V13.1317H11.0433V13.125ZM11.0433 15H11.05V15.0067H11.0433V15ZM13.125 9.375H13.1317V9.38167H13.125V9.375ZM13.125 11.25H13.1317V11.2567H13.125V11.25ZM6.875 5H13.125V6.875H6.875V5ZM10 1.875C8.42333 1.875 6.86833 1.96667 5.33917 2.14333C4.4225 2.25 3.75 3.04167 3.75 3.96417V16.25C3.75 16.7473 3.94754 17.2242 4.29917 17.5758C4.65081 17.9275 5.12772 18.125 5.625 18.125H14.375C14.8723 18.125 15.3492 17.9275 15.7008 17.5758C16.0525 17.2242 16.25 16.7473 16.25 16.25V3.96417C16.25 3.04083 15.5783 2.25 14.6608 2.14333C13.1137 1.96417 11.5575 1.87458 10 1.875Z" stroke="black" stroke-width="1.5" stroke-linecap="round" stroke-linejoin="round"/>
</svg>
