<svg width="19" height="22" viewBox="0 0 19 22" fill="none" xmlns="http://www.w3.org/2000/svg">
<path d="M17.75 13.0577V10.3654C17.75 9.44733 17.347 8.56687 16.6297 7.91771C15.9124 7.26854 14.9395 6.90385 13.925 6.90385H12.225C11.8868 6.90385 11.5625 6.78228 11.3234 6.56589C11.0843 6.3495 10.95 6.05602 10.95 5.75V4.21154C10.95 3.29348 10.547 2.41303 9.82968 1.76386C9.11236 1.1147 8.13945 0.75 7.125 0.75H5M5 13.8269H13.5M5 16.9038H9.25M7.55 0.75H2.025C1.3212 0.75 0.75 1.26692 0.75 1.90385V19.5962C0.75 20.2331 1.3212 20.75 2.025 20.75H16.475C17.1788 20.75 17.75 20.2331 17.75 19.5962V9.98077C17.75 7.53262 16.6754 5.18473 14.7625 3.45363C12.8496 1.72252 10.2552 0.75 7.55 0.75Z" stroke="black" stroke-width="1.5" stroke-linecap="round" stroke-linejoin="round"/>
</svg>
