<svg width="45" height="32" viewBox="0 0 45 32" fill="none" xmlns="http://www.w3.org/2000/svg">
<path fill-rule="evenodd" clip-rule="evenodd" d="M23.6213 0.203385C24.3075 -0.132221 25.1249 -0.0476583 25.7279 0.421311L43.7279 14.4213C44.2151 14.8002 44.5 15.3828 44.5 16C44.5 16.6172 44.2151 17.1998 43.7279 17.5787L25.7279 31.5787C25.1249 32.0477 24.3075 32.1323 23.6213 31.7966C22.9351 31.461 22.5 30.7639 22.5 30V2.00002C22.5 1.23615 22.9351 0.538991 23.6213 0.203385Z" fill="#282828"/>
<path fill-rule="evenodd" clip-rule="evenodd" d="M1.6213 0.203385C2.30749 -0.132221 3.12492 -0.0476583 3.72788 0.421311L21.7279 14.4213C22.2151 14.8002 22.5 15.3828 22.5 16C22.5 16.6172 22.2151 17.1998 21.7279 17.5787L3.72788 31.5787C3.12492 32.0477 2.30749 32.1323 1.6213 31.7966C0.935103 31.461 0.5 30.7639 0.5 30V2.00002C0.5 1.23615 0.935103 0.538991 1.6213 0.203385Z" fill="#282828"/>
</svg>
