<svg width="20" height="20" viewBox="0 0 20 20" fill="none" xmlns="http://www.w3.org/2000/svg">
<path fill-rule="evenodd" clip-rule="evenodd" d="M13.7981 2.5231C13.3957 2.47762 12.9864 2.4908 12.5834 2.56423C11.7501 2.71606 10.9829 3.11822 10.384 3.71714C9.78507 4.31605 9.38291 5.08326 9.23108 5.91654C9.07926 6.74981 9.18499 7.60956 9.53418 8.38122C9.67718 8.69723 9.60948 9.06877 9.36422 9.31404L3.60588 15.0724C3.43064 15.2476 3.33219 15.4853 3.33219 15.7331C3.33219 15.9809 3.43064 16.2186 3.60588 16.3939C3.78112 16.5691 4.0188 16.6675 4.26663 16.6675C4.51445 16.6675 4.75213 16.5691 4.92737 16.3939L10.6857 10.6355C10.931 10.3903 11.3025 10.3226 11.6185 10.4656C12.3902 10.8148 13.2499 10.9205 14.0832 10.7687C14.9165 10.6168 15.6837 10.2147 16.2826 9.61576C16.8815 9.01685 17.2837 8.24963 17.4355 7.41636C17.5089 7.01332 17.5221 6.60408 17.4766 6.20161L15.3333 8.34493C15.0218 8.65031 14.6029 8.82133 14.1666 8.82133C13.7304 8.82133 13.3115 8.65028 13 8.3449L12.994 8.33907L11.6548 6.99981C11.3494 6.68826 11.1784 6.26937 11.1784 5.83311C11.1784 5.39686 11.3495 4.97799 11.6548 4.66645L11.6607 4.6605L13.7981 2.5231ZM12.2846 0.924563C13.4512 0.712009 14.6549 0.860029 15.7352 1.3489C15.9844 1.46168 16.1624 1.6896 16.2115 1.95874C16.2605 2.22787 16.1743 2.50393 15.9809 2.69737L12.8451 5.83311L14.1666 7.1546L17.3024 4.01886C17.4958 3.82542 17.7719 3.73924 18.041 3.78828C18.3101 3.83731 18.5381 4.01532 18.6508 4.26455C19.1397 5.34488 19.2877 6.54853 19.0752 7.71511C18.8626 8.88169 18.2996 9.95579 17.4611 10.7943C16.6226 11.6327 15.5485 12.1958 14.382 12.4083C13.4091 12.5856 12.4104 12.5121 11.479 12.1992L6.10588 17.5724C5.61808 18.0602 4.95648 18.3342 4.26663 18.3342C3.57677 18.3342 2.91517 18.0602 2.42737 17.5724C1.93957 17.0846 1.66553 16.423 1.66553 15.7331C1.66553 15.0433 1.93957 14.3817 2.42737 13.8939L7.8005 8.52073C7.48766 7.58932 7.41415 6.59066 7.59141 5.61778C7.80396 4.4512 8.36699 3.3771 9.20547 2.53863C10.044 1.70015 11.118 1.13712 12.2846 0.924563Z" fill="#717680"/>
</svg>
