<svg width="14" height="14" viewBox="0 0 14 14" fill="none" xmlns="http://www.w3.org/2000/svg">
<path fill-rule="evenodd" clip-rule="evenodd" d="M2.33301 1.66536C1.96482 1.66536 1.66634 1.96384 1.66634 2.33203V11.6654C1.66634 12.0336 1.96482 12.332 2.33301 12.332H11.6663C12.0345 12.332 12.333 12.0336 12.333 11.6654V2.33203C12.333 1.96384 12.0345 1.66536 11.6663 1.66536H2.33301ZM0.333008 2.33203C0.333008 1.22746 1.22844 0.332031 2.33301 0.332031H11.6663C12.7709 0.332031 13.6663 1.22746 13.6663 2.33203V11.6654C13.6663 12.7699 12.7709 13.6654 11.6663 13.6654H2.33301C1.22844 13.6654 0.333008 12.7699 0.333008 11.6654V2.33203Z" fill="#8E8E93"/>
<path fill-rule="evenodd" clip-rule="evenodd" d="M4.66634 4.33203C4.48225 4.33203 4.33301 4.48127 4.33301 4.66536C4.33301 4.84946 4.48225 4.9987 4.66634 4.9987C4.85044 4.9987 4.99967 4.84946 4.99967 4.66536C4.99967 4.48127 4.85044 4.33203 4.66634 4.33203ZM2.99967 4.66536C2.99967 3.74489 3.74587 2.9987 4.66634 2.9987C5.58682 2.9987 6.33301 3.74489 6.33301 4.66536C6.33301 5.58584 5.58682 6.33203 4.66634 6.33203C3.74587 6.33203 2.99967 5.58584 2.99967 4.66536Z" fill="#8E8E93"/>
<path fill-rule="evenodd" clip-rule="evenodd" d="M9.19494 5.19396C9.45529 4.93361 9.8774 4.93361 10.1377 5.19396L13.4711 8.52729C13.7314 8.78764 13.7314 9.20975 13.4711 9.4701C13.2107 9.73045 12.7886 9.73045 12.5283 9.4701L9.66634 6.60817L2.80441 13.4701C2.54406 13.7305 2.12195 13.7305 1.8616 13.4701C1.60125 13.2098 1.60125 12.7876 1.8616 12.5273L9.19494 5.19396Z" fill="#8E8E93"/>
</svg>
