<svg width="20" height="20" viewBox="0 0 20 20" fill="none" xmlns="http://www.w3.org/2000/svg">
<path fill-rule="evenodd" clip-rule="evenodd" d="M3.33333 10.8327C3.79357 10.8327 4.16667 11.2058 4.16667 11.666V17.4993C4.16667 17.9596 3.79357 18.3327 3.33333 18.3327C2.8731 18.3327 2.5 17.9596 2.5 17.4993V11.666C2.5 11.2058 2.8731 10.8327 3.33333 10.8327Z" fill="black"/>
<path fill-rule="evenodd" clip-rule="evenodd" d="M3.33333 1.66602C3.79357 1.66602 4.16667 2.03911 4.16667 2.49935V8.33268C4.16667 8.79292 3.79357 9.16602 3.33333 9.16602C2.8731 9.16602 2.5 8.79292 2.5 8.33268V2.49935C2.5 2.03911 2.8731 1.66602 3.33333 1.66602Z" fill="black"/>
<path fill-rule="evenodd" clip-rule="evenodd" d="M10 9.16602C10.4602 9.16602 10.8333 9.53911 10.8333 9.99935V17.4993C10.8333 17.9596 10.4602 18.3327 10 18.3327C9.53976 18.3327 9.16667 17.9596 9.16667 17.4993V9.99935C9.16667 9.53911 9.53976 9.16602 10 9.16602Z" fill="black"/>
<path fill-rule="evenodd" clip-rule="evenodd" d="M10 1.66602C10.4602 1.66602 10.8333 2.03911 10.8333 2.49935V6.66602C10.8333 7.12625 10.4602 7.49935 10 7.49935C9.53976 7.49935 9.16667 7.12625 9.16667 6.66602V2.49935C9.16667 2.03911 9.53976 1.66602 10 1.66602Z" fill="black"/>
<path fill-rule="evenodd" clip-rule="evenodd" d="M16.6667 12.4993C17.1269 12.4993 17.5 12.8724 17.5 13.3327V17.4993C17.5 17.9596 17.1269 18.3327 16.6667 18.3327C16.2064 18.3327 15.8333 17.9596 15.8333 17.4993V13.3327C15.8333 12.8724 16.2064 12.4993 16.6667 12.4993Z" fill="black"/>
<path fill-rule="evenodd" clip-rule="evenodd" d="M16.6667 1.66602C17.1269 1.66602 17.5 2.03911 17.5 2.49935V9.99935C17.5 10.4596 17.1269 10.8327 16.6667 10.8327C16.2064 10.8327 15.8333 10.4596 15.8333 9.99935V2.49935C15.8333 2.03911 16.2064 1.66602 16.6667 1.66602Z" fill="black"/>
<path fill-rule="evenodd" clip-rule="evenodd" d="M0 11.666C0 11.2058 0.373096 10.8327 0.833333 10.8327H5.83333C6.29357 10.8327 6.66667 11.2058 6.66667 11.666C6.66667 12.1263 6.29357 12.4993 5.83333 12.4993H0.833333C0.373096 12.4993 0 12.1263 0 11.666Z" fill="black"/>
<path fill-rule="evenodd" clip-rule="evenodd" d="M6.66667 6.66602C6.66667 6.20578 7.03976 5.83268 7.5 5.83268H12.5C12.9602 5.83268 13.3333 6.20578 13.3333 6.66602C13.3333 7.12625 12.9602 7.49935 12.5 7.49935H7.5C7.03976 7.49935 6.66667 7.12625 6.66667 6.66602Z" fill="black"/>
<path fill-rule="evenodd" clip-rule="evenodd" d="M13.3333 13.3327C13.3333 12.8724 13.7064 12.4993 14.1667 12.4993H19.1667C19.6269 12.4993 20 12.8724 20 13.3327C20 13.7929 19.6269 14.166 19.1667 14.166H14.1667C13.7064 14.166 13.3333 13.7929 13.3333 13.3327Z" fill="black"/>
</svg>
