<svg width="21" height="20" viewBox="0 0 21 20" fill="none" xmlns="http://www.w3.org/2000/svg">
<path d="M0.75 10.51C0.75 12.11 1.873 13.504 3.457 13.737C4.544 13.897 5.642 14.02 6.75 14.106V18.75L10.826 14.674C11.1024 14.3993 11.4735 14.2409 11.863 14.231C13.7644 14.1784 15.661 14.0134 17.543 13.737C19.127 13.504 20.25 12.111 20.25 10.509V4.491C20.25 2.889 19.127 1.496 17.543 1.263C15.211 0.920716 12.857 0.74926 10.5 0.750002C8.108 0.750002 5.756 0.925002 3.457 1.263C1.873 1.496 0.75 2.89 0.75 4.491V10.509V10.51Z" stroke="#2F6FED" stroke-width="1.5" stroke-linecap="round" stroke-linejoin="round"/>
</svg>
