<svg width="13" height="22" viewBox="0 0 13 22" fill="none" xmlns="http://www.w3.org/2000/svg">
<path d="M6.25 17.1786C7.70869 17.1786 9.10764 16.5765 10.1391 15.5049C11.1705 14.4333 11.75 12.9798 11.75 11.4643V10.0357M6.25 17.1786C4.79131 17.1786 3.39236 16.5765 2.36091 15.5049C1.32946 14.4333 0.75 12.9798 0.75 11.4643V10.0357M6.25 17.1786V20.75M2.8125 20.75H9.6875M6.25 14.3214C5.52065 14.3214 4.82118 14.0204 4.30546 13.4846C3.78973 12.9488 3.5 12.222 3.5 11.4643V3.60714C3.5 2.84938 3.78973 2.12266 4.30546 1.58684C4.82118 1.05102 5.52065 0.75 6.25 0.75C6.97935 0.75 7.67882 1.05102 8.19454 1.58684C8.71027 2.12266 9 2.84938 9 3.60714V11.4643C9 12.222 8.71027 12.9488 8.19454 13.4846C7.67882 14.0204 6.97935 14.3214 6.25 14.3214Z" stroke="#0A7D49" stroke-width="1.5" stroke-linecap="round" stroke-linejoin="round"/>
</svg>
